<svg xmlns="http://www.w3.org/2000/svg" width="375" viewBox="0 0 375 375" height="375" version="1.0"><defs><clipPath id="a"><path d="M 4.925781 275 L 370.175781 275 L 370.175781 308 L 4.925781 308 Z M 4.925781 275"/></clipPath><clipPath id="b"><path d="M 4.925781 4.925781 L 370.175781 4.925781 L 370.175781 283 L 4.925781 283 Z M 4.925781 4.925781"/></clipPath><clipPath id="c"><path d="M 99 344 L 276 344 L 276 370.175781 L 99 370.175781 Z M 99 344"/></clipPath></defs><path fill="#B5D9ED" d="M 256.820312 344.984375 C 256.820312 344.984375 225.332031 338.6875 225.332031 307.199219 L 225.332031 300.902344 L 149.765625 300.902344 L 149.765625 307.199219 C 149.765625 338.6875 118.277344 344.984375 118.277344 344.984375 L 118.277344 351.28125 L 256.820312 351.28125 L 256.820312 344.984375"/><g clip-path="url(#a)"><path fill="#DCEDFA" d="M 370.175781 282.011719 L 370.175781 294.605469 C 370.175781 301.519531 364.492188 307.199219 357.578125 307.199219 L 17.519531 307.199219 C 10.582031 307.199219 4.925781 301.519531 4.925781 294.605469 L 4.925781 282.011719 L 11.222656 275.714844 L 363.875 275.714844 L 370.175781 282.011719"/></g><g clip-path="url(#b)"><path fill="#3B6E88" d="M 370.175781 17.519531 L 370.175781 282.011719 L 4.925781 282.011719 L 4.925781 17.519531 C 4.925781 10.605469 10.582031 4.925781 17.519531 4.925781 L 357.578125 4.925781 C 364.492188 4.925781 370.175781 10.605469 370.175781 17.519531"/></g><path fill="#4982A9" d="M 344.984375 36.410156 L 344.984375 143.46875 L 187.550781 143.46875 L 187.550781 30.113281 L 338.6875 30.113281 C 342.15625 30.113281 344.984375 32.941406 344.984375 36.410156"/><path fill="#5895C9" d="M 187.550781 30.113281 L 187.550781 143.46875 L 30.113281 143.46875 L 30.113281 36.410156 C 30.113281 32.941406 32.941406 30.113281 36.410156 30.113281 L 187.550781 30.113281"/><path fill="#4982A9" d="M 187.550781 143.46875 L 187.550781 256.820312 L 36.410156 256.820312 C 32.941406 256.820312 30.113281 253.992188 30.113281 250.523438 L 30.113281 143.46875 L 187.550781 143.46875"/><path fill="#5895C9" d="M 344.984375 143.46875 L 344.984375 250.523438 C 344.984375 253.992188 342.15625 256.820312 338.6875 256.820312 L 187.550781 256.820312 L 187.550781 143.46875 L 344.984375 143.46875"/><g clip-path="url(#c)"><path fill="#DCEDFA" d="M 269.414062 370.175781 L 105.683594 370.175781 C 102.214844 370.175781 99.386719 367.34375 99.386719 363.875 C 99.386719 353.445312 107.847656 344.984375 118.277344 344.984375 L 256.820312 344.984375 C 267.25 344.984375 275.714844 353.445312 275.714844 363.875 C 275.714844 367.34375 272.882812 370.175781 269.414062 370.175781"/></g><path fill="#F6DF47" d="M 300.902344 86.789062 C 300.902344 104.183594 286.808594 118.277344 269.414062 118.277344 L 263.117188 86.789062 L 293.992188 67.136719 C 298.320312 72.5 300.902344 79.363281 300.902344 86.789062"/><path fill="#F6DF47" d="M 300.902344 200.144531 C 300.902344 217.535156 286.808594 231.632812 269.414062 231.632812 C 252.023438 231.632812 237.929688 217.535156 237.929688 200.144531 C 237.929688 182.753906 252.023438 168.65625 269.414062 168.65625 L 300.902344 200.144531"/><path fill="#F14A74" d="M 300.902344 200.144531 L 275.714844 200.144531 C 272.246094 200.144531 269.414062 197.316406 269.414062 193.847656 L 269.414062 168.65625 C 286.808594 168.65625 300.902344 182.753906 300.902344 200.144531"/><path fill="#71CB7E" d="M 293.992188 67.136719 L 269.414062 86.789062 L 237.929688 86.789062 C 237.929688 69.398438 252.023438 55.304688 269.414062 55.304688 C 279.378906 55.304688 288.234375 59.902344 293.992188 67.136719"/><path fill="#F14A74" d="M 269.414062 86.789062 L 269.414062 118.277344 C 252.023438 118.277344 237.929688 104.183594 237.929688 86.789062 L 269.414062 86.789062"/><path fill="#F6DF47" d="M 124.574219 212.738281 C 124.574219 202.308594 116.113281 193.847656 105.683594 193.847656 C 102.214844 193.847656 99.386719 191.019531 99.386719 187.550781 C 99.386719 184.082031 102.214844 181.25 105.683594 181.25 C 107.921875 181.25 110.011719 182.457031 111.144531 184.402344 C 112.890625 187.402344 116.726562 188.460938 119.753906 186.6875 C 122.753906 184.964844 123.789062 181.105469 122.042969 178.101562 C 119.777344 174.167969 116.136719 171.363281 111.980469 169.886719 L 111.980469 168.65625 C 111.980469 165.1875 109.152344 162.359375 105.683594 162.359375 C 102.214844 162.359375 99.386719 165.1875 99.386719 168.65625 L 99.386719 169.8125 C 92.078125 172.421875 86.789062 179.359375 86.789062 187.550781 C 86.789062 197.980469 95.253906 206.441406 105.683594 206.441406 C 109.152344 206.441406 111.980469 209.269531 111.980469 212.738281 C 111.980469 216.207031 109.152344 219.035156 105.683594 219.035156 C 103.445312 219.035156 101.351562 217.832031 100.222656 215.886719 C 98.476562 212.863281 94.636719 211.828125 91.613281 213.601562 C 88.609375 215.320312 87.578125 219.183594 89.324219 222.183594 C 91.585938 226.121094 95.226562 228.925781 99.386719 230.402344 L 99.386719 231.632812 C 99.386719 235.101562 102.214844 237.929688 105.683594 237.929688 C 109.152344 237.929688 111.980469 235.101562 111.980469 231.632812 L 111.980469 230.476562 C 119.285156 227.867188 124.574219 220.929688 124.574219 212.738281"/><path fill="#FFF" d="M 105.683594 124.574219 C 102.214844 124.574219 99.386719 121.746094 99.386719 118.277344 L 99.386719 74.195312 C 99.386719 70.726562 102.214844 67.898438 105.683594 67.898438 C 109.152344 67.898438 111.980469 70.726562 111.980469 74.195312 L 111.980469 118.277344 C 111.980469 121.746094 109.152344 124.574219 105.683594 124.574219"/><path fill="#FFF" d="M 130.871094 124.574219 C 127.402344 124.574219 124.574219 121.746094 124.574219 118.277344 L 124.574219 93.089844 C 124.574219 89.621094 127.402344 86.789062 130.871094 86.789062 C 134.339844 86.789062 137.171875 89.621094 137.171875 93.089844 L 137.171875 118.277344 C 137.171875 121.746094 134.339844 124.574219 130.871094 124.574219"/><path fill="#3B6E88" d="M 143.46875 124.574219 L 86.789062 124.574219 C 79.855469 124.574219 74.195312 118.917969 74.195312 111.980469 L 74.195312 55.304688 C 74.195312 51.835938 77.023438 49.007812 80.492188 49.007812 C 83.960938 49.007812 86.789062 51.835938 86.789062 55.304688 L 86.789062 111.980469 L 143.46875 111.980469 C 146.9375 111.980469 149.765625 114.808594 149.765625 118.277344 C 149.765625 121.746094 146.9375 124.574219 143.46875 124.574219"/></svg>